-
http:// www . torrentkit. com        
http:// www .torrentkit. com       the fast  and The Hottest Private Tracker on the net

Please Seed back to make the speed Faster!!!

and don't forget to visit      ...... www .torrentkit .com..........
-[align=center][IMG]http://img820.imageshack.us/img820/1103/narniacover.jpg[/IMG]

** ** ** ** ** ** ** ** ** 

IMDB........ http://www.imdb.com/title/tt0980970/

** ** ** ** ** ** ** ** ** 

[b]PLOT[/b]

Lucy and Edmund Pevensie return to Narnia with their cousin Eustace where they meet up with Prince Caspian for a trip across the sea aboard the royal ship The Dawn Treader. Along the way they encounter dragons, dwarves, merfolk, and a band of lost warriors before reaching the edge of the world. 

** ** ** ** ** ** ** ** ** 

[b]AVI Information[/b]

Complete name : The.Chronicles.of.Narnia.The.Voyage.of.the.Dawn.Treader.2010 480 BRRip Xvid AC3 - PRESTiGE.avi 
Format : AVI 
Format/Info : Audio Video Interleave 
File size : 1.77 GiB 
Duration : 1h 52mn 
Overall bit rate : 2 245 Kbps 
Source: The.Chronicles.of.Narnia.The.Voyage.of.the.Dawn.Treader.2010.Bluray.720p.DTS.x264-CHD
Encoder: Twisted

[b]Video Stream[/b]

ID : 0 
Format : MPEG-4 Visual 
Format profile : Advanced Simple@L5 
Format settings, BVOP : 2 
Format settings, QPel : No 
Format settings, GMC : No warppoints 
Format settings, Matrix : Default (MPEG) 
Codec ID : XVID 
Codec ID/Hint : XviD 
Duration : 1h 52mn 
Bit rate : 1 789 Kbps 
Width : 720 pixels 
Height : 400 pixels 
Display aspect ratio : 16:9 
Frame rate : 23.976 fps 
Color space : YUV 
Chroma subsampling : 4:2:0 
Bit depth : 8 bits 
Scan type : Progressive 
Compression mode : Lossy 
Bits/(Pixel*Frame) : 0.259 
Stream size : 1.41 GiB (80%) 
Writing library : XviD 1.2.1 (UTC 2008-12-04) 


[b]Audio Stream[/b]

ID : 1 
Format : AC-3 
Format/Info : Audio Coding 3 
Mode extension : CM (complete main) 
Codec ID : 2000 
Duration : 1h 52mn 
Bit rate mode : Constant 
Bit rate : 448 Kbps 
Channel(s) : 6 channels 
Channel positions : Front: L C R, Side: L R, LFE 
Sampling rate : 48.0 KHz 
Bit depth : 16 bits 
Compression mode : Lossy 
Stream size : 361 MiB (20%) 
Alignment : Aligned on interleaves 
Interleave, duration : 64 ms (1.53 video frames) 
Interleave, preload duration : 192 ms 
Title : T2_Audio - English 


** ** ** ** ** ** ** ** ** 

[b]Screens[/b]

[IMG]http://img153.imageshack.us/img153/2226/pic11g.png[/IMG]
[IMG]http://img9.imageshack.us/img9/9549/pic12b.png[/IMG]
[IMG]http://img846.imageshack.us/img846/3250/pic13.png[/IMG]
[IMG]http://img822.imageshack.us/img822/5549/pic14hb.png[/IMG]
[IMG]http://img849.imageshack.us/img849/145/pic15s.png[/IMG]
[IMG]http://img200.imageshack.us/img200/6633/pic16v.png[/IMG]
[IMG]http://img808.imageshack.us/img808/5899/pic17v.png[/IMG]
[IMG]http://img225.imageshack.us/img225/1047/pic18.png[/IMG]

** ** ** ** ** ** ** ** **

Note

PRESTiGE - IS LOOKING FOR?: CAMMER'S, AUDIO SUPPLIERS, SYNCER'S, RETAIL SUPPLIER'S, SILVER'S, SCREENER'S, LINE CAPPER'S

ENCODER'S - ANYTHING AT ALL EMAIL US AT..... prestige@twistedtorrents.com

** ** ** ** ** ** ** ** **

Greets Are Flying Out To:

[b]BmB,HiTM4N,BIGGUY,Demedic,DiLLoN,Imagine,CTFX,Jammo
Encoders Past And Present[/b]

** ** ** ** ** ** ** ** ** 

PRESTiGE is the level of respect at which one is regarded by others....RIzE Above Or Sink Below

[IMG]http://leetleech.org/images/83508160282003703104.png[/IMG][/align]